<svg width="107" height="24" viewBox="0 0 107 24" fill="none" xmlns="http://www.w3.org/2000/svg">
<path d="M7.76376 18.288C6.54776 18.288 5.45976 18.08 4.49976 17.664C3.55576 17.248 2.81176 16.64 2.26776 15.84C1.72376 15.04 1.43576 14.072 1.40376 12.936H4.83576C4.85176 13.432 4.97976 13.88 5.21976 14.28C5.45976 14.68 5.79576 15 6.22776 15.24C6.65976 15.464 7.17176 15.576 7.76376 15.576C8.25976 15.576 8.69176 15.496 9.05976 15.336C9.44376 15.16 9.73976 14.92 9.94776 14.616C10.1718 14.312 10.2838 13.952 10.2838 13.536C10.2838 13.04 10.1558 12.632 9.89976 12.312C9.65976 11.976 9.33176 11.704 8.91576 11.496C8.49976 11.272 8.01976 11.072 7.47576 10.896C6.94776 10.704 6.38776 10.512 5.79576 10.32C4.49976 9.872 3.50776 9.296 2.81976 8.592C2.13176 7.872 1.78776 6.92 1.78776 5.736C1.78776 4.728 2.02776 3.864 2.50776 3.144C2.98776 2.424 3.65976 1.872 4.52376 1.488C5.38776 1.104 6.37176 0.912 7.47576 0.912C8.61176 0.912 9.61176 1.112 10.4758 1.512C11.3398 1.896 12.0198 2.456 12.5158 3.192C13.0118 3.928 13.2758 4.792 13.3078 5.784H9.82776C9.81176 5.416 9.70776 5.072 9.51576 4.752C9.32376 4.416 9.05176 4.152 8.69976 3.96C8.34776 3.752 7.92376 3.648 7.42776 3.648C7.01176 3.632 6.63576 3.696 6.29976 3.84C5.96376 3.984 5.69176 4.2 5.48376 4.488C5.29176 4.76 5.19576 5.104 5.19576 5.52C5.19576 5.92 5.29176 6.256 5.48376 6.528C5.67576 6.8 5.94776 7.04 6.29976 7.248C6.65176 7.44 7.06776 7.624 7.54776 7.8C8.02776 7.96 8.54776 8.128 9.10776 8.304C9.95576 8.592 10.7238 8.936 11.4118 9.336C12.1158 9.72 12.6758 10.224 13.0918 10.848C13.5078 11.472 13.7158 12.296 13.7158 13.32C13.7158 14.2 13.4838 15.016 13.0198 15.768C12.5718 16.52 11.9078 17.128 11.0278 17.592C10.1478 18.056 9.05976 18.288 7.76376 18.288ZM21.4297 18C20.5817 18 19.8377 17.872 19.1977 17.616C18.5737 17.344 18.0857 16.904 17.7337 16.296C17.3817 15.672 17.2057 14.824 17.2057 13.752V8.808H15.1657V6.096H17.2057L17.5657 2.856H20.4457V6.096H23.6137V8.808H20.4457V13.8C20.4457 14.344 20.5657 14.72 20.8057 14.928C21.0457 15.136 21.4537 15.24 22.0297 15.24H23.5417V18H21.4297ZM30.0598 18.288C29.0518 18.288 28.2118 18.128 27.5398 17.808C26.8838 17.488 26.3958 17.056 26.0758 16.512C25.7558 15.968 25.5958 15.368 25.5958 14.712C25.5958 13.976 25.7798 13.336 26.1478 12.792C26.5318 12.232 27.1078 11.792 27.8758 11.472C28.6438 11.152 29.6118 10.992 30.7798 10.992H33.7798C33.7798 10.416 33.6918 9.944 33.5158 9.576C33.3558 9.192 33.0998 8.912 32.7478 8.736C32.4118 8.544 31.9798 8.448 31.4518 8.448C30.8278 8.448 30.2918 8.584 29.8438 8.856C29.4118 9.128 29.1398 9.544 29.0278 10.104H25.8838C25.9798 9.224 26.2758 8.464 26.7718 7.824C27.2678 7.184 27.9238 6.688 28.7398 6.336C29.5558 5.984 30.4598 5.808 31.4518 5.808C32.5878 5.808 33.5718 6 34.4038 6.384C35.2358 6.752 35.8758 7.304 36.3238 8.04C36.7878 8.76 37.0198 9.64 37.0198 10.68V18H34.2838L33.9238 16.152C33.7638 16.472 33.5558 16.76 33.2998 17.016C33.0598 17.272 32.7798 17.496 32.4598 17.688C32.1398 17.88 31.7798 18.024 31.3798 18.12C30.9798 18.232 30.5398 18.288 30.0598 18.288ZM30.8278 15.792C31.2598 15.792 31.6358 15.72 31.9558 15.576C32.2918 15.416 32.5718 15.208 32.7958 14.952C33.0358 14.696 33.2198 14.4 33.3478 14.064C33.4918 13.728 33.5878 13.368 33.6358 12.984H31.1398C30.6438 12.984 30.2358 13.048 29.9158 13.176C29.6118 13.288 29.3878 13.456 29.2438 13.68C29.0998 13.888 29.0278 14.136 29.0278 14.424C29.0278 14.712 29.0998 14.96 29.2438 15.168C29.3878 15.376 29.5958 15.536 29.8678 15.648C30.1398 15.744 30.4598 15.792 30.8278 15.792ZM39.6318 18V6.096H42.5118L42.8238 8.328C43.1118 7.816 43.4638 7.376 43.8798 7.008C44.3118 6.624 44.7998 6.328 45.3438 6.12C45.9038 5.912 46.5118 5.808 47.1678 5.808V9.24H46.2798C45.7838 9.24 45.3198 9.296 44.8878 9.408C44.4718 9.52 44.1118 9.704 43.8078 9.96C43.5038 10.216 43.2718 10.568 43.1118 11.016C42.9518 11.448 42.8718 12 42.8718 12.672V18H39.6318ZM54.372 18C53.524 18 52.78 17.872 52.14 17.616C51.516 17.344 51.028 16.904 50.676 16.296C50.324 15.672 50.148 14.824 50.148 13.752V8.808H48.108V6.096H50.148L50.508 2.856H53.388V6.096H56.556V8.808H53.388V13.8C53.388 14.344 53.508 14.72 53.748 14.928C53.988 15.136 54.396 15.24 54.972 15.24H56.484V18H54.372ZM63.362 18.288C62.37 18.288 61.522 18.08 60.818 17.664C60.13 17.248 59.602 16.632 59.234 15.816C58.882 14.984 58.706 13.968 58.706 12.768V6.096H61.922V12.48C61.922 13.472 62.122 14.232 62.522 14.76C62.922 15.288 63.554 15.552 64.418 15.552C64.978 15.552 65.474 15.424 65.906 15.168C66.338 14.896 66.674 14.52 66.914 14.04C67.154 13.544 67.274 12.944 67.274 12.24V6.096H70.514V18H67.658L67.418 16.008C67.034 16.696 66.498 17.248 65.81 17.664C65.122 18.08 64.306 18.288 63.362 18.288ZM73.3475 23.28V6.096H76.2275L76.5875 7.752C76.8435 7.4 77.1475 7.08 77.4995 6.792C77.8515 6.488 78.2755 6.248 78.7715 6.072C79.2675 5.896 79.8435 5.808 80.4995 5.808C81.6195 5.808 82.6115 6.08 83.4755 6.624C84.3555 7.168 85.0515 7.912 85.5635 8.856C86.0755 9.8 86.3315 10.872 86.3315 12.072C86.3315 13.256 86.0755 14.32 85.5635 15.264C85.0515 16.208 84.3555 16.952 83.4755 17.496C82.6115 18.024 81.6195 18.288 80.4995 18.288C79.6195 18.288 78.8515 18.128 78.1955 17.808C77.5395 17.472 77.0035 17.016 76.5875 16.44V23.28H73.3475ZM79.7795 15.456C80.4035 15.456 80.9635 15.312 81.4595 15.024C81.9555 14.736 82.3395 14.336 82.6115 13.824C82.8995 13.312 83.0435 12.728 83.0435 12.072C83.0435 11.4 82.8995 10.808 82.6115 10.296C82.3395 9.784 81.9555 9.384 81.4595 9.096C80.9635 8.792 80.4035 8.64 79.7795 8.64C79.1395 8.64 78.5715 8.792 78.0755 9.096C77.5795 9.384 77.1875 9.784 76.8995 10.296C76.6275 10.808 76.4915 11.392 76.4915 12.048C76.4915 12.704 76.6275 13.296 76.8995 13.824C77.1875 14.336 77.5795 14.736 78.0755 15.024C78.5715 15.312 79.1395 15.456 79.7795 15.456ZM99.7052 18.288C98.6172 18.288 97.6172 18.088 96.7052 17.688C95.7932 17.288 95.0652 16.68 94.5212 15.864C93.9772 15.048 93.6892 14.016 93.6572 12.768H96.8492C96.8652 13.296 96.9852 13.776 97.2092 14.208C97.4332 14.624 97.7532 14.96 98.1692 15.216C98.6012 15.456 99.1212 15.576 99.7292 15.576C100.289 15.576 100.761 15.464 101.145 15.24C101.545 15.016 101.849 14.72 102.057 14.352C102.265 13.984 102.369 13.56 102.369 13.08C102.369 12.52 102.233 12.048 101.961 11.664C101.689 11.28 101.305 10.992 100.809 10.8C100.329 10.592 99.7692 10.488 99.1292 10.488H97.8812V7.824H99.1292C99.9132 7.824 100.569 7.648 101.097 7.296C101.625 6.928 101.889 6.384 101.889 5.664C101.889 5.056 101.689 4.568 101.289 4.2C100.905 3.832 100.377 3.648 99.7052 3.648C98.9372 3.648 98.3372 3.872 97.9052 4.32C97.4892 4.768 97.2572 5.32 97.2092 5.976H94.0652C94.1132 4.92 94.3772 4.016 94.8572 3.264C95.3372 2.496 95.9932 1.912 96.8252 1.512C97.6572 1.112 98.6172 0.912 99.7052 0.912C100.857 0.912 101.833 1.12 102.633 1.536C103.433 1.936 104.041 2.48 104.457 3.168C104.873 3.84 105.081 4.584 105.081 5.4C105.081 6.04 104.953 6.616 104.697 7.128C104.457 7.624 104.137 8.04 103.737 8.376C103.337 8.712 102.881 8.96 102.369 9.12C103.009 9.232 103.561 9.472 104.025 9.84C104.505 10.208 104.873 10.68 105.129 11.256C105.401 11.816 105.537 12.464 105.537 13.2C105.537 14.112 105.313 14.96 104.865 15.744C104.417 16.512 103.761 17.128 102.897 17.592C102.033 18.056 100.969 18.288 99.7052 18.288Z" fill="#1E0E62"/>
<path d="M4.49976 17.664L4.29813 18.1216L4.30096 18.1228L4.49976 17.664ZM2.26776 15.84L2.68122 15.5588L2.68122 15.5588L2.26776 15.84ZM1.40376 12.936V12.436H0.889479L0.90396 12.9501L1.40376 12.936ZM4.83576 12.936L5.3355 12.9199L5.31989 12.436H4.83576V12.936ZM5.21976 14.28L4.79102 14.5372L4.79102 14.5372L5.21976 14.28ZM6.22776 15.24L5.98494 15.6771L5.99122 15.6806L5.9976 15.6839L6.22776 15.24ZM9.05976 15.336L9.25916 15.7946L9.26809 15.7905L9.05976 15.336ZM9.94776 14.616L9.54523 14.3194L9.54005 14.3264L9.53511 14.3337L9.94776 14.616ZM9.89976 12.312L9.49289 12.6026L9.50081 12.6137L9.50933 12.6243L9.89976 12.312ZM8.91576 11.496L8.67871 11.9362L8.68538 11.9398L8.69215 11.9432L8.91576 11.496ZM7.47576 10.896L7.30489 11.3659L7.31332 11.369L7.32185 11.3717L7.47576 10.896ZM5.79576 10.32L5.63238 10.7926L5.64151 10.7956L5.79576 10.32ZM2.81976 8.592L2.45824 8.93745L2.46217 8.94147L2.81976 8.592ZM2.50776 3.144L2.09174 2.86665L2.09174 2.86665L2.50776 3.144ZM10.4758 1.512L10.2657 1.96579L10.2727 1.9689L10.4758 1.512ZM12.5158 3.192L12.9304 2.91257L12.9304 2.91257L12.5158 3.192ZM13.3078 5.784V6.284H13.8242L13.8075 5.76788L13.3078 5.784ZM9.82776 5.784L9.32823 5.80572L9.34903 6.284H9.82776V5.784ZM9.51576 4.752L9.08154 5.00012L9.08701 5.00925L9.51576 4.752ZM8.69976 3.96L8.4454 4.39046L8.45279 4.39483L8.46034 4.39895L8.69976 3.96ZM7.42776 3.648L7.40854 4.14763L7.41815 4.148H7.42776V3.648ZM5.48376 4.488L5.0784 4.19524L5.07528 4.19966L5.48376 4.488ZM5.48376 6.528L5.07528 6.81634L5.07528 6.81634L5.48376 6.528ZM6.29976 7.248L6.0454 7.67846L6.05279 7.68283L6.06034 7.68695L6.29976 7.248ZM7.54776 7.8L7.37563 8.26944L7.3826 8.27199L7.38965 8.27434L7.54776 7.8ZM9.10776 8.304L9.2686 7.83043L9.25768 7.827L9.10776 8.304ZM11.4118 9.336L11.1604 9.76841L11.1723 9.77495L11.4118 9.336ZM13.0198 15.768L12.5942 15.5054L12.5902 15.5121L13.0198 15.768ZM11.0278 17.592L11.261 18.0343L11.261 18.0343L11.0278 17.592ZM7.76376 18.288V17.788C6.60516 17.788 5.58646 17.59 4.69857 17.2052L4.49976 17.664L4.30096 18.1228C5.33306 18.57 6.49036 18.788 7.76376 18.788V18.288ZM4.49976 17.664L4.70139 17.2065C3.8372 16.8256 3.169 16.2762 2.68122 15.5588L2.26776 15.84L1.8543 16.1212C2.45452 17.0038 3.27432 17.6704 4.29813 18.1215L4.49976 17.664ZM2.26776 15.84L2.68122 15.5588C2.19972 14.8507 1.93335 13.9794 1.90356 12.9219L1.40376 12.936L0.90396 12.9501C0.93817 14.1646 1.2478 15.2293 1.8543 16.1212L2.26776 15.84ZM1.40376 12.936V13.436H4.83576V12.936V12.436H1.40376V12.936ZM4.83576 12.936L4.33602 12.9521C4.35459 13.5276 4.5044 14.0596 4.79102 14.5372L5.21976 14.28L5.64851 14.0228C5.45512 13.7004 5.34894 13.3364 5.3355 12.9199L4.83576 12.936ZM5.21976 14.28L4.79102 14.5372C5.07885 15.017 5.48099 15.3971 5.98494 15.6771L6.22776 15.24L6.47058 14.8029C6.11053 14.6029 5.84068 14.343 5.64851 14.0228L5.21976 14.28ZM6.22776 15.24L5.9976 15.6839C6.51452 15.9519 7.1088 16.076 7.76376 16.076V15.576V15.076C7.23473 15.076 6.805 14.9761 6.45792 14.7961L6.22776 15.24ZM7.76376 15.576V16.076C8.31262 16.076 8.81523 15.9875 9.25912 15.7945L9.05976 15.336L8.8604 14.8775C8.56829 15.0045 8.2069 15.076 7.76376 15.076V15.576ZM9.05976 15.336L9.26809 15.7905C9.72223 15.5824 10.094 15.2877 10.3604 14.8983L9.94776 14.616L9.53511 14.3337C9.38549 14.5523 9.16529 14.7376 8.85143 14.8815L9.05976 15.336ZM9.94776 14.616L10.3503 14.9126C10.6441 14.5139 10.7838 14.0473 10.7838 13.536H10.2838H9.78376C9.78376 13.8567 9.69946 14.1101 9.54523 14.3194L9.94776 14.616ZM10.2838 13.536H10.7838C10.7838 12.9512 10.6311 12.4258 10.2902 11.9997L9.89976 12.312L9.50933 12.6243C9.68038 12.8382 9.78376 13.1288 9.78376 13.536H10.2838ZM9.89976 12.312L10.3066 12.0214C10.0135 11.611 9.61897 11.2886 9.13937 11.0488L8.91576 11.496L8.69215 11.9432C9.04455 12.1194 9.30602 12.341 9.49289 12.6026L9.89976 12.312ZM8.91576 11.496L9.15281 11.0558C8.70538 10.8148 8.19664 10.6037 7.62967 10.4203L7.47576 10.896L7.32185 11.3717C7.84288 11.5403 8.29414 11.7292 8.67871 11.9362L8.91576 11.496ZM7.47576 10.896L7.64663 10.4261C7.11258 10.2319 6.547 10.038 5.95001 9.84439L5.79576 10.32L5.64151 10.7956C6.22852 10.986 6.78294 11.1761 7.30489 11.3659L7.47576 10.896ZM5.79576 10.32L5.95912 9.84744C4.70938 9.41543 3.79401 8.87353 3.17736 8.24253L2.81976 8.592L2.46217 8.94147C3.22151 9.71847 4.29014 10.3286 5.63241 10.7926L5.79576 10.32ZM2.81976 8.592L3.18126 8.24657C2.59857 7.63679 2.28776 6.81724 2.28776 5.736H1.78776H1.28776C1.28776 7.02276 1.66495 8.10721 2.45827 8.93743L2.81976 8.592ZM1.78776 5.736H2.28776C2.28776 4.81004 2.50711 4.04636 2.92379 3.42135L2.50776 3.144L2.09174 2.86665C1.54841 3.68164 1.28776 4.64596 1.28776 5.736H1.78776ZM2.50776 3.144L2.92379 3.42135C3.34641 2.78742 3.94107 2.29413 4.72683 1.94491L4.52376 1.488L4.32069 1.03109C3.37845 1.44987 2.62911 2.06058 2.09174 2.86665L2.50776 3.144ZM4.52376 1.488L4.72683 1.94491C5.51708 1.59369 6.4301 1.412 7.47576 1.412V0.912V0.412C6.31342 0.412 5.25845 0.614314 4.32069 1.03109L4.52376 1.488ZM7.47576 0.912V1.412C8.55304 1.412 9.47902 1.60153 10.2657 1.96573L10.4758 1.512L10.6858 1.05827C9.7445 0.62247 8.67049 0.412 7.47576 0.412V0.912ZM10.4758 1.512L10.2727 1.9689C11.0568 2.31738 11.6611 2.81842 12.1011 3.47143L12.5158 3.192L12.9304 2.91257C12.3785 2.09358 11.6228 1.47462 10.6788 1.05509L10.4758 1.512ZM12.5158 3.192L12.1011 3.47143C12.5385 4.12042 12.7787 4.89069 12.808 5.80012L13.3078 5.784L13.8075 5.76788C13.7728 4.69331 13.485 3.73558 12.9304 2.91257L12.5158 3.192ZM13.3078 5.784V5.284H9.82776V5.784V6.284H13.3078V5.784ZM9.82776 5.784L10.3273 5.76228C10.3076 5.30997 10.1788 4.88517 9.94451 4.49475L9.51576 4.752L9.08701 5.00925C9.23677 5.25883 9.3159 5.52203 9.32823 5.80572L9.82776 5.784ZM9.51576 4.752L9.94988 4.50393C9.71021 4.0845 9.36943 3.75573 8.93919 3.52105L8.69976 3.96L8.46034 4.39895C8.73409 4.54827 8.93731 4.7475 9.08164 5.00007L9.51576 4.752ZM8.69976 3.96L8.95413 3.52954C8.51018 3.26721 7.99418 3.148 7.42776 3.148V3.648V4.148C7.85334 4.148 8.18534 4.23679 8.4454 4.39046L8.69976 3.96ZM7.42776 3.648L7.44698 3.14837C6.96715 3.12991 6.51589 3.20339 6.1028 3.38043L6.29976 3.84L6.49672 4.29957C6.75564 4.18861 7.05637 4.13408 7.40854 4.14763L7.42776 3.648ZM6.29976 3.84L6.1028 3.38043C5.68604 3.55904 5.34107 3.83159 5.07842 4.19525L5.48376 4.488L5.8891 4.78074C6.04245 4.56841 6.24148 4.40896 6.49672 4.29957L6.29976 3.84ZM5.48376 4.488L5.07528 4.19966C4.81033 4.575 4.69576 5.02671 4.69576 5.52H5.19576H5.69576C5.69576 5.18129 5.7732 4.945 5.89225 4.77634L5.48376 4.488ZM5.19576 5.52H4.69576C4.69576 6.00203 4.81256 6.44415 5.07528 6.81634L5.48376 6.528L5.89225 6.23966C5.77097 6.06784 5.69576 5.83797 5.69576 5.52H5.19576ZM5.48376 6.528L5.07528 6.81634C5.31622 7.15767 5.6461 7.44251 6.0454 7.67846L6.29976 7.248L6.55413 6.81754C6.24943 6.63749 6.03531 6.44233 5.89225 6.23966L5.48376 6.528ZM6.29976 7.248L6.06034 7.68695C6.43892 7.89345 6.87844 8.08713 7.37563 8.26944L7.54776 7.8L7.71989 7.33056C7.25708 7.16087 6.8646 6.98655 6.53919 6.80905L6.29976 7.248ZM7.54776 7.8L7.38965 8.27434C7.87276 8.43538 8.39553 8.60427 8.95785 8.781L9.10776 8.304L9.25768 7.827C8.69999 7.65173 8.18276 7.48462 7.70588 7.32566L7.54776 7.8ZM9.10776 8.304L8.94697 8.77744C9.76735 9.05606 10.5045 9.38688 11.1605 9.76825L11.4118 9.336L11.6631 8.90375C10.943 8.48512 10.1442 8.12794 9.26855 7.83056L9.10776 8.304ZM11.4118 9.336L11.1723 9.77495C11.8103 10.1229 12.3077 10.5734 12.6757 11.1254L13.0918 10.848L13.5078 10.5706C13.0438 9.87464 12.4212 9.31706 11.6512 8.89705L11.4118 9.336ZM13.0918 10.848L12.6757 11.1254C13.0203 11.6422 13.2158 12.3597 13.2158 13.32H13.7158H14.2158C14.2158 12.2323 13.9952 11.3018 13.5078 10.5706L13.0918 10.848ZM13.7158 13.32H13.2158C13.2158 14.1069 13.0098 14.832 12.5942 15.5054L13.0198 15.768L13.4453 16.0306C13.9578 15.2 14.2158 14.2931 14.2158 13.32H13.7158ZM13.0198 15.768L12.5902 15.5121C12.1954 16.1747 11.6046 16.7226 10.7946 17.1497L11.0278 17.592L11.261 18.0343C12.211 17.5334 12.9481 16.8653 13.4493 16.0239L13.0198 15.768ZM11.0278 17.592L10.7946 17.1497C10.0049 17.5661 9.00229 17.788 7.76376 17.788V18.288V18.788C9.11723 18.788 10.2906 18.5459 11.261 18.0343L11.0278 17.592ZM19.1977 17.616L18.9979 18.0743L19.0049 18.0774L19.012 18.0802L19.1977 17.616ZM17.7337 16.296L17.2982 16.5417L17.301 16.5465L17.7337 16.296ZM17.2057 8.808H17.7057V8.308H17.2057V8.808ZM15.1657 8.808H14.6657V9.308H15.1657V8.808ZM15.1657 6.096V5.596H14.6657V6.096H15.1657ZM17.2057 6.096V6.596H17.6532L17.7026 6.15122L17.2057 6.096ZM17.5657 2.856V2.356H17.1182L17.0688 2.80078L17.5657 2.856ZM20.4457 2.856H20.9457V2.356H20.4457V2.856ZM20.4457 6.096H19.9457V6.596H20.4457V6.096ZM23.6137 6.096H24.1137V5.596H23.6137V6.096ZM23.6137 8.808V9.308H24.1137V8.808H23.6137ZM20.4457 8.808V8.308H19.9457V8.808H20.4457ZM20.8057 14.928L20.4782 15.3058L20.4782 15.3058L20.8057 14.928ZM23.5417 15.24H24.0417V14.74H23.5417V15.24ZM23.5417 18V18.5H24.0417V18H23.5417ZM21.4297 18V17.5C20.6311 17.5 19.9525 17.3794 19.3834 17.1518L19.1977 17.616L19.012 18.0802C19.723 18.3646 20.5323 18.5 21.4297 18.5V18ZM19.1977 17.616L19.3975 17.1577C18.8746 16.9297 18.4668 16.5643 18.1664 16.0455L17.7337 16.296L17.301 16.5465C17.7046 17.2437 18.2728 17.7583 18.9979 18.0743L19.1977 17.616ZM17.7337 16.296L18.1692 16.0503C17.8754 15.5295 17.7057 14.7774 17.7057 13.752H17.2057H16.7057C16.7057 14.8706 16.888 15.8145 17.2982 16.5417L17.7337 16.296ZM17.2057 13.752H17.7057V8.808H17.2057H16.7057V13.752H17.2057ZM17.2057 8.808V8.308H15.1657V8.808V9.308H17.2057V8.808ZM15.1657 8.808H15.6657V6.096H15.1657H14.6657V8.808H15.1657ZM15.1657 6.096V6.596H17.2057V6.096V5.596H15.1657V6.096ZM17.2057 6.096L17.7026 6.15122L18.0626 2.91121L17.5657 2.856L17.0688 2.80078L16.7088 6.04078L17.2057 6.096ZM17.5657 2.856V3.356H20.4457V2.856V2.356H17.5657V2.856ZM20.4457 2.856H19.9457V6.096H20.4457H20.9457V2.856H20.4457ZM20.4457 6.096V6.596H23.6137V6.096V5.596H20.4457V6.096ZM23.6137 6.096H23.1137V8.808H23.6137H24.1137V6.096H23.6137ZM23.6137 8.808V8.308H20.4457V8.808V9.308H23.6137V8.808ZM20.4457 8.808H19.9457V13.8H20.4457H20.9457V8.808H20.4457ZM20.4457 13.8H19.9457C19.9457 14.3903 20.0713 14.9532 20.4782 15.3058L20.8057 14.928L21.1332 14.5502C21.0601 14.4868 20.9457 14.2977 20.9457 13.8H20.4457ZM20.8057 14.928L20.4782 15.3058C20.8585 15.6354 21.4207 15.74 22.0297 15.74V15.24V14.74C21.4867 14.74 21.2329 14.6366 21.1332 14.5502L20.8057 14.928ZM22.0297 15.24V15.74H23.5417V15.24V14.74H22.0297V15.24ZM23.5417 15.24H23.0417V18H23.5417H24.0417V15.24H23.5417ZM23.5417 18V17.5H21.4297V18V18.5H23.5417V18ZM27.5398 17.808L27.3205 18.2574L27.3248 18.2594L27.5398 17.808ZM26.0758 16.512L25.6448 16.7655L25.6448 16.7655L26.0758 16.512ZM26.1478 12.792L25.7354 12.5092L25.7336 12.5118L26.1478 12.792ZM27.8758 11.472L28.0681 11.9335L28.0681 11.9335L27.8758 11.472ZM33.7798 10.992V11.492H34.2798V10.992H33.7798ZM33.5158 9.576L33.0542 9.76831L33.0592 9.78015L33.0647 9.79173L33.5158 9.576ZM32.7478 8.736L32.4997 9.17012L32.5118 9.17701L32.5242 9.18321L32.7478 8.736ZM29.8438 8.856L29.5842 8.42855L29.5774 8.43288L29.8438 8.856ZM29.0278 10.104V10.604H29.4377L29.5181 10.2021L29.0278 10.104ZM25.8838 10.104L25.3867 10.0498L25.3263 10.604H25.8838V10.104ZM26.7718 7.824L26.3766 7.51771L26.3766 7.51771L26.7718 7.824ZM28.7398 6.336L28.5417 5.87689L28.5417 5.87689L28.7398 6.336ZM34.4038 6.384L34.1942 6.83804L34.2015 6.84127L34.4038 6.384ZM36.3238 8.04L35.8965 8.30006L35.9035 8.31085L36.3238 8.04ZM37.0198 18V18.5H37.5198V18H37.0198ZM34.2838 18L33.793 18.0956L33.8718 18.5H34.2838V18ZM33.9238 16.152L34.4145 16.0564L34.1336 14.6143L33.4766 15.9284L33.9238 16.152ZM33.2998 17.016L32.9462 16.6624L32.9405 16.6681L32.935 16.674L33.2998 17.016ZM32.4598 17.688L32.717 18.1167L32.717 18.1167L32.4598 17.688ZM31.3798 18.12L31.2631 17.6338L31.254 17.636L31.245 17.6385L31.3798 18.12ZM31.9558 15.576L32.161 16.0321L32.1707 16.0274L31.9558 15.576ZM32.7958 14.952L32.431 14.61L32.4251 14.6163L32.4195 14.6227L32.7958 14.952ZM33.3478 14.064L32.8882 13.867L32.8842 13.8764L32.8805 13.886L33.3478 14.064ZM33.6358 12.984L34.1319 13.046L34.2022 12.484H33.6358V12.984ZM29.9158 13.176L30.0887 13.6453L30.1015 13.6402L29.9158 13.176ZM29.2438 13.68L29.6549 13.9646L29.6597 13.9576L29.6644 13.9504L29.2438 13.68ZM29.8678 15.648L29.6774 16.1103L29.6893 16.1152L29.7014 16.1195L29.8678 15.648ZM30.0598 18.288V17.788C29.1012 17.788 28.3402 17.6354 27.7547 17.3566L27.5398 17.808L27.3248 18.2594C28.0833 18.6206 29.0024 18.788 30.0598 18.788V18.288ZM27.5398 17.808L27.759 17.3586C27.1771 17.0748 26.7695 16.7052 26.5067 16.2585L26.0758 16.512L25.6448 16.7655C26.022 17.4068 26.5904 17.9012 27.3206 18.2574L27.5398 17.808ZM26.0758 16.512L26.5067 16.2585C26.2338 15.7944 26.0958 15.2825 26.0958 14.712H25.5958H25.0958C25.0958 15.4535 25.2778 16.1416 25.6448 16.7655L26.0758 16.512ZM25.5958 14.712H26.0958C26.0958 14.0634 26.2565 13.5237 26.5619 13.0722L26.1478 12.792L25.7336 12.5118C25.3031 13.1483 25.0958 13.8886 25.0958 14.712H25.5958ZM26.1478 12.792L26.5601 13.0748C26.8784 12.6106 27.369 12.2248 28.0681 11.9335L27.8758 11.472L27.6835 11.0105C26.8466 11.3592 26.1851 11.8534 25.7354 12.5092L26.1478 12.792ZM27.8758 11.472L28.0681 11.9335C28.7558 11.647 29.653 11.492 30.7798 11.492V10.992V10.492C29.5705 10.492 28.5317 10.657 27.6835 11.0105L27.8758 11.472ZM30.7798 10.992V11.492H33.7798V10.992V10.492H30.7798V10.992ZM33.7798 10.992H34.2798C34.2798 10.3701 34.1855 9.81747 33.9668 9.36027L33.5158 9.576L33.0647 9.79173C33.198 10.0705 33.2798 10.4619 33.2798 10.992H33.7798ZM33.5158 9.576L33.9773 9.38369C33.774 8.89579 33.4372 8.52169 32.9714 8.28879L32.7478 8.736L32.5242 9.18321C32.7624 9.30231 32.9375 9.48821 33.0542 9.76831L33.5158 9.576ZM32.7478 8.736L32.9958 8.30188C32.5617 8.05379 32.0364 7.948 31.4518 7.948V8.448V8.948C31.9231 8.948 32.2619 9.03421 32.4997 9.17012L32.7478 8.736ZM31.4518 8.448V7.948C30.7538 7.948 30.1243 8.10075 29.5843 8.42861L29.8438 8.856L30.1033 9.28339C30.4593 9.06725 30.9017 8.948 31.4518 8.948V8.448ZM29.8438 8.856L29.5774 8.43288C29.015 8.78699 28.6729 9.32907 28.5375 10.0059L29.0278 10.104L29.5181 10.2021C29.6067 9.75893 29.8086 9.46901 30.1102 9.27912L29.8438 8.856ZM29.0278 10.104V9.604H25.8838V10.104V10.604H29.0278V10.104ZM25.8838 10.104L26.3808 10.1582C26.4678 9.36118 26.7328 8.69055 27.167 8.13029L26.7718 7.824L26.3766 7.51771C25.8188 8.23745 25.4918 9.08682 25.3867 10.0498L25.8838 10.104ZM26.7718 7.824L27.167 8.13029C27.6063 7.56343 28.1916 7.11698 28.9378 6.7951L28.7398 6.336L28.5417 5.87689C27.6559 6.25902 26.9293 6.80457 26.3766 7.51771L26.7718 7.824ZM28.7398 6.336L28.9378 6.7951C29.6844 6.47306 30.5199 6.308 31.4518 6.308V5.808V5.308C30.3996 5.308 29.4272 5.49494 28.5417 5.87689L28.7398 6.336ZM31.4518 5.808V6.308C32.5323 6.308 33.4417 6.49066 34.1942 6.83798L34.4038 6.384L34.6133 5.93002C33.7018 5.50934 32.6432 5.308 31.4518 5.308V5.808ZM34.4038 6.384L34.2015 6.84127C34.9457 7.17043 35.5048 7.65616 35.8967 8.29997L36.3238 8.04L36.7509 7.78003C36.2468 6.95184 35.5258 6.33357 34.606 5.92673L34.4038 6.384ZM36.3238 8.04L35.9035 8.31085C36.3053 8.93428 36.5198 9.71534 36.5198 10.68H37.0198H37.5198C37.5198 9.56466 37.2703 8.58572 36.7441 7.76915L36.3238 8.04ZM37.0198 10.68H36.5198V18H37.0198H37.5198V10.68H37.0198ZM37.0198 18V17.5H34.2838V18V18.5H37.0198V18ZM34.2838 18L34.7745 17.9044L34.4145 16.0564L33.9238 16.152L33.433 16.2476L33.793 18.0956L34.2838 18ZM33.9238 16.152L33.4766 15.9284C33.3409 16.1997 33.1647 16.444 32.9462 16.6624L33.2998 17.016L33.6533 17.3696C33.9469 17.076 34.1867 16.7443 34.371 16.3756L33.9238 16.152ZM33.2998 17.016L32.935 16.674C32.7286 16.8942 32.4854 17.0896 32.2025 17.2593L32.4598 17.688L32.717 18.1167C33.0742 17.9024 33.3909 17.6498 33.6645 17.358L33.2998 17.016ZM32.4598 17.688L32.2025 17.2593C31.9304 17.4225 31.6186 17.5485 31.2631 17.6338L31.3798 18.12L31.4965 18.6062C31.9409 18.4995 32.3491 18.3375 32.717 18.1167L32.4598 17.688ZM31.3798 18.12L31.245 17.6385C30.895 17.7365 30.5011 17.788 30.0598 17.788V18.288V18.788C30.5784 18.788 31.0645 18.7275 31.5146 18.6015L31.3798 18.12ZM30.8278 15.792V16.292C31.3146 16.292 31.7633 16.2109 32.161 16.032L31.9558 15.576L31.7506 15.12C31.5082 15.2291 31.205 15.292 30.8278 15.292V15.792ZM31.9558 15.576L32.1707 16.0274C32.5624 15.8409 32.8991 15.5932 33.1721 15.2813L32.7958 14.952L32.4195 14.6227C32.2444 14.8228 32.0211 14.9911 31.7408 15.1246L31.9558 15.576ZM32.7958 14.952L33.1605 15.294C33.4462 14.9893 33.6644 14.6373 33.815 14.242L33.3478 14.064L32.8805 13.886C32.7751 14.1627 32.6254 14.4027 32.431 14.61L32.7958 14.952ZM33.3478 14.064L33.8073 14.261C33.9708 13.8795 34.0784 13.4738 34.1319 13.046L33.6358 12.984L33.1396 12.922C33.0971 13.2622 33.0127 13.5765 32.8882 13.867L33.3478 14.064ZM33.6358 12.984V12.484H31.1398V12.984V13.484H33.6358V12.984ZM31.1398 12.984V12.484C30.6058 12.484 30.129 12.5522 29.7301 12.7118L29.9158 13.176L30.1015 13.6402C30.3425 13.5438 30.6817 13.484 31.1398 13.484V12.984ZM29.9158 13.176L29.7429 12.7068C29.3596 12.8481 29.0378 13.0758 28.8232 13.4096L29.2438 13.68L29.6644 13.9504C29.7378 13.8362 29.864 13.7279 30.0886 13.6452L29.9158 13.176ZM29.2438 13.68L28.8327 13.3954C28.623 13.6982 28.5278 14.0489 28.5278 14.424H29.0278H29.5278C29.5278 14.2231 29.5765 14.0778 29.6549 13.9646L29.2438 13.68ZM29.0278 14.424H28.5278C28.5278 14.7991 28.623 15.1498 28.8327 15.4526L29.2438 15.168L29.6549 14.8834C29.5765 14.7702 29.5278 14.6249 29.5278 14.424H29.0278ZM29.2438 15.168L28.8327 15.4526C29.04 15.7521 29.3311 15.9677 29.6774 16.1103L29.8678 15.648L30.0581 15.1857C29.8605 15.1043 29.7355 14.9999 29.6549 14.8834L29.2438 15.168ZM29.8678 15.648L29.7014 16.1195C30.0393 16.2387 30.418 16.292 30.8278 16.292V15.792V15.292C30.5016 15.292 30.2403 15.2492 30.0342 15.1765L29.8678 15.648ZM39.6318 18H39.1318V18.5H39.6318V18ZM39.6318 6.096V5.596H39.1318V6.096H39.6318ZM42.5118 6.096L43.007 6.02678L42.9468 5.596H42.5118V6.096ZM42.8238 8.328L42.3287 8.39722L42.5337 9.86375L43.2596 8.57313L42.8238 8.328ZM43.8798 7.008L44.2111 7.3825L44.212 7.3817L43.8798 7.008ZM45.3438 6.12L45.1697 5.65126L45.1653 5.65297L45.3438 6.12ZM47.1678 5.808H47.6678V5.308H47.1678V5.808ZM47.1678 9.24V9.74H47.6678V9.24H47.1678ZM44.8878 9.408L44.7624 8.92398L44.7579 8.92519L44.8878 9.408ZM43.8078 9.96L43.4858 9.57754L43.4858 9.57754L43.8078 9.96ZM43.1118 11.016L43.5807 11.1897L43.5827 11.1842L43.1118 11.016ZM42.8718 18V18.5H43.3718V18H42.8718ZM39.6318 18H40.1318V6.096H39.6318H39.1318V18H39.6318ZM39.6318 6.096V6.596H42.5118V6.096V5.596H39.6318V6.096ZM42.5118 6.096L42.0167 6.16522L42.3287 8.39722L42.8238 8.328L43.319 8.25878L43.007 6.02678L42.5118 6.096ZM42.8238 8.328L43.2596 8.57313C43.5218 8.10696 43.8393 7.71142 44.2111 7.3825L43.8798 7.008L43.5486 6.6335C43.0884 7.04058 42.7018 7.52504 42.3881 8.08287L42.8238 8.328ZM43.8798 7.008L44.212 7.3817C44.5985 7.03815 45.0344 6.77362 45.5224 6.58702L45.3438 6.12L45.1653 5.65297C44.5653 5.88238 44.0252 6.20985 43.5477 6.63429L43.8798 7.008ZM45.3438 6.12L45.5179 6.58871C46.017 6.40334 46.5654 6.308 47.1678 6.308V5.808V5.308C46.4582 5.308 45.7907 5.42066 45.1697 5.65129L45.3438 6.12ZM47.1678 5.808H46.6678V9.24H47.1678H47.6678V5.808H47.1678ZM47.1678 9.24V8.74H46.2798V9.24V9.74H47.1678V9.24ZM46.2798 9.24V8.74C45.7461 8.74 45.2396 8.80027 44.7624 8.924L44.8878 9.408L45.0133 9.892C45.4001 9.79173 45.8215 9.74 46.2798 9.74V9.24ZM44.8878 9.408L44.7579 8.92519C44.2773 9.05458 43.8503 9.2706 43.4858 9.57754L43.8078 9.96L44.1299 10.3425C44.3734 10.1374 44.6664 9.98542 45.0178 9.89081L44.8878 9.408ZM43.8078 9.96L43.4858 9.57754C43.1019 9.90084 42.8249 10.333 42.641 10.8478L43.1118 11.016L43.5827 11.1842C43.7188 10.803 43.9058 10.5312 44.1299 10.3425L43.8078 9.96ZM43.1118 11.016L42.643 10.8423C42.4552 11.3492 42.3718 11.9655 42.3718 12.672H42.8718H43.3718C43.3718 12.0345 43.4484 11.5468 43.5807 11.1897L43.1118 11.016ZM42.8718 12.672H42.3718V18H42.8718H43.3718V12.672H42.8718ZM42.8718 18V17.5H39.6318V18V18.5H42.8718V18ZM52.14 17.616L51.9402 18.0743L51.9472 18.0774L51.9543 18.0802L52.14 17.616ZM50.676 16.296L50.2405 16.5417L50.2433 16.5465L50.676 16.296ZM50.148 8.808H50.648V8.308H50.148V8.808ZM48.108 8.808H47.608V9.308H48.108V8.808ZM48.108 6.096V5.596H47.608V6.096H48.108ZM50.148 6.096V6.596H50.5955L50.6449 6.15122L50.148 6.096ZM50.508 2.856V2.356H50.0604L50.011 2.80078L50.508 2.856ZM53.388 2.856H53.888V2.356H53.388V2.856ZM53.388 6.096H52.888V6.596H53.388V6.096ZM56.556 6.096H57.056V5.596H56.556V6.096ZM56.556 8.808V9.308H57.056V8.808H56.556ZM53.388 8.808V8.308H52.888V8.808H53.388ZM53.748 14.928L53.4205 15.3058L53.4205 15.3058L53.748 14.928ZM56.484 15.24H56.984V14.74H56.484V15.24ZM56.484 18V18.5H56.984V18H56.484ZM54.372 18V17.5C53.5734 17.5 52.8947 17.3794 52.3257 17.1518L52.14 17.616L51.9543 18.0802C52.6652 18.3646 53.4746 18.5 54.372 18.5V18ZM52.14 17.616L52.3398 17.1577C51.8169 16.9297 51.409 16.5643 51.1087 16.0455L50.676 16.296L50.2433 16.5465C50.6469 17.2437 51.215 17.7583 51.9402 18.0743L52.14 17.616ZM50.676 16.296L51.1115 16.0503C50.8177 15.5295 50.648 14.7774 50.648 13.752H50.148H49.648C49.648 14.8706 49.8303 15.8145 50.2405 16.5417L50.676 16.296ZM50.148 13.752H50.648V8.808H50.148H49.648V13.752H50.148ZM50.148 8.808V8.308H48.108V8.808V9.308H50.148V8.808ZM48.108 8.808H48.608V6.096H48.108H47.608V8.808H48.108ZM48.108 6.096V6.596H50.148V6.096V5.596H48.108V6.096ZM50.148 6.096L50.6449 6.15122L51.0049 2.91121L50.508 2.856L50.011 2.80078L49.651 6.04078L50.148 6.096ZM50.508 2.856V3.356H53.388V2.856V2.356H50.508V2.856ZM53.388 2.856H52.888V6.096H53.388H53.888V2.856H53.388ZM53.388 6.096V6.596H56.556V6.096V5.596H53.388V6.096ZM56.556 6.096H56.056V8.808H56.556H57.056V6.096H56.556ZM56.556 8.808V8.308H53.388V8.808V9.308H56.556V8.808ZM53.388 8.808H52.888V13.8H53.388H53.888V8.808H53.388ZM53.388 13.8H52.888C52.888 14.3903 53.0136 14.9532 53.4205 15.3058L53.748 14.928L54.0754 14.5502C54.0024 14.4868 53.888 14.2977 53.888 13.8H53.388ZM53.748 14.928L53.4205 15.3058C53.8008 15.6354 54.363 15.74 54.972 15.74V15.24V14.74C54.4289 14.74 54.1752 14.6366 54.0754 14.5502L53.748 14.928ZM54.972 15.24V15.74H56.484V15.24V14.74H54.972V15.24ZM56.484 15.24H55.984V18H56.484H56.984V15.24H56.484ZM56.484 18V17.5H54.372V18V18.5H56.484V18ZM60.818 17.664L60.5593 18.0919L60.5637 18.0945L60.818 17.664ZM59.234 15.816L58.7734 16.0109L58.7782 16.0216L59.234 15.816ZM58.706 6.096V5.596H58.206V6.096H58.706ZM61.922 6.096H62.422V5.596H61.922V6.096ZM62.522 14.76L62.1235 15.0619L62.1235 15.0619L62.522 14.76ZM65.906 15.168L66.161 15.5983L66.1724 15.5911L65.906 15.168ZM66.914 14.04L67.3613 14.2636L67.3641 14.2578L66.914 14.04ZM67.274 6.096V5.596H66.774V6.096H67.274ZM70.514 6.096H71.014V5.596H70.514V6.096ZM70.514 18V18.5H71.014V18H70.514ZM67.658 18L67.1616 18.0598L67.2147 18.5H67.658V18ZM67.418 16.008L67.9144 15.9482L67.7306 14.4221L66.9814 15.7643L67.418 16.008ZM65.81 17.664L66.0687 18.0919L66.0687 18.0919L65.81 17.664ZM63.362 18.288V17.788C62.4405 17.788 61.6845 17.5952 61.0724 17.2335L60.818 17.664L60.5637 18.0945C61.3596 18.5648 62.2996 18.788 63.362 18.788V18.288ZM60.818 17.664L61.0767 17.2361C60.4852 16.8784 60.0211 16.345 59.6898 15.6104L59.234 15.816L58.7782 16.0216C59.183 16.919 59.7749 17.6176 60.5593 18.0919L60.818 17.664ZM59.234 15.816L59.6945 15.6212C59.3756 14.8675 59.206 13.9219 59.206 12.768H58.706H58.206C58.206 14.0141 58.3884 15.1005 58.7736 16.0108L59.234 15.816ZM58.706 12.768H59.206V6.096H58.706H58.206V12.768H58.706ZM58.706 6.096V6.596H61.922V6.096V5.596H58.706V6.096ZM61.922 6.096H61.422V12.48H61.922H62.422V6.096H61.922ZM61.922 12.48H61.422C61.422 13.5294 61.6321 14.4133 62.1235 15.0619L62.522 14.76L62.9206 14.4581C62.612 14.0507 62.422 13.4146 62.422 12.48H61.922ZM62.522 14.76L62.1235 15.0619C62.6455 15.751 63.4495 16.052 64.418 16.052V15.552V15.052C63.6586 15.052 63.1986 14.825 62.9206 14.4581L62.522 14.76ZM64.418 15.552V16.052C65.0571 16.052 65.6431 15.905 66.1609 15.5981L65.906 15.168L65.6511 14.7379C65.3049 14.943 64.8989 15.052 64.418 15.052V15.552ZM65.906 15.168L66.1724 15.5911C66.6859 15.2679 67.0825 14.821 67.3612 14.2636L66.914 14.04L66.4668 13.8164C66.2655 14.219 65.9902 14.5241 65.6396 14.7449L65.906 15.168ZM66.914 14.04L67.3641 14.2578C67.6448 13.6777 67.774 12.9992 67.774 12.24H67.274H66.774C66.774 12.8888 66.6633 13.4103 66.464 13.8222L66.914 14.04ZM67.274 12.24H67.774V6.096H67.274H66.774V12.24H67.274ZM67.274 6.096V6.596H70.514V6.096V5.596H67.274V6.096ZM70.514 6.096H70.014V18H70.514H71.014V6.096H70.514ZM70.514 18V17.5H67.658V18V18.5H70.514V18ZM67.658 18L68.1544 17.9402L67.9144 15.9482L67.418 16.008L66.9216 16.0678L67.1616 18.0598L67.658 18ZM67.418 16.008L66.9814 15.7643C66.6406 16.3749 66.1666 16.8641 65.5513 17.2361L65.81 17.664L66.0687 18.0919C66.8294 17.6319 67.4274 17.0171 67.8546 16.2517L67.418 16.008ZM65.81 17.664L65.5513 17.2361C64.9541 17.5973 64.2309 17.788 63.362 17.788V18.288V18.788C64.3812 18.788 65.29 18.5627 66.0687 18.0919L65.81 17.664ZM73.3475 23.28H72.8475V23.78H73.3475V23.28ZM73.3475 6.096V5.596H72.8475V6.096H73.3475ZM76.2275 6.096L76.7161 5.98978L76.6305 5.596H76.2275V6.096ZM76.5875 7.752L76.0989 7.85821L76.3359 8.94812L76.9919 8.04609L76.5875 7.752ZM77.4995 6.792L77.8163 7.17912L77.8263 7.17041L77.4995 6.792ZM78.7715 6.072L78.9387 6.54321L78.9387 6.54321L78.7715 6.072ZM83.4755 6.624L83.2091 7.04713L83.2126 7.0493L83.4755 6.624ZM85.5635 8.856L85.124 9.09438L85.124 9.09438L85.5635 8.856ZM85.5635 15.264L85.124 15.0256L85.124 15.0256L85.5635 15.264ZM83.4755 17.496L83.7363 17.9226L83.7384 17.9213L83.4755 17.496ZM78.1955 17.808L77.9676 18.2531L77.9763 18.2574L78.1955 17.808ZM76.5875 16.44L76.9929 16.1473L76.0875 14.8937V16.44H76.5875ZM76.5875 23.28V23.78H77.0875V23.28H76.5875ZM81.4595 15.024L81.7106 15.4564L81.7106 15.4564L81.4595 15.024ZM82.6115 13.824L82.1756 13.5788L82.17 13.5894L82.6115 13.824ZM82.6115 10.296L82.1699 10.5306L82.1757 10.5411L82.6115 10.296ZM81.4595 9.096L81.1982 9.52242L81.2085 9.52839L81.4595 9.096ZM78.0755 9.096L78.3267 9.52852L78.3368 9.5223L78.0755 9.096ZM76.8995 10.296L76.4636 10.0508L76.458 10.0614L76.8995 10.296ZM76.8995 13.824L76.455 14.053L76.4593 14.0611L76.4637 14.0691L76.8995 13.824ZM78.0755 15.024L78.3266 14.5916L78.3266 14.5916L78.0755 15.024ZM73.3475 23.28H73.8475V6.096H73.3475H72.8475V23.28H73.3475ZM73.3475 6.096V6.596H76.2275V6.096V5.596H73.3475V6.096ZM76.2275 6.096L75.7389 6.20221L76.0989 7.85821L76.5875 7.752L77.0761 7.64578L76.7161 5.98978L76.2275 6.096ZM76.5875 7.752L76.9919 8.04609C77.2216 7.7302 77.4958 7.44111 77.8162 7.17898L77.4995 6.792L77.1829 6.40502C76.7993 6.71889 76.4654 7.0698 76.1832 7.45791L76.5875 7.752ZM77.4995 6.792L77.8263 7.17041C78.1256 6.91197 78.4936 6.70117 78.9387 6.54321L78.7715 6.072L78.6043 5.60079C78.0575 5.79483 77.5775 6.06403 77.1727 6.41359L77.4995 6.792ZM78.7715 6.072L78.9387 6.54321C79.3697 6.3903 79.887 6.308 80.4995 6.308V5.808V5.308C79.8 5.308 79.1654 5.4017 78.6043 5.60079L78.7715 6.072ZM80.4995 5.808V6.308C81.5347 6.308 82.4326 6.55817 83.2091 7.04712L83.4755 6.624L83.7419 6.20088C82.7905 5.60183 81.7043 5.308 80.4995 5.308V5.808ZM83.4755 6.624L83.2126 7.0493C84.0156 7.54567 84.6519 8.22398 85.124 9.09438L85.5635 8.856L86.0031 8.61762C85.4511 7.60002 84.6955 6.79033 83.7384 6.1987L83.4755 6.624ZM85.5635 8.856L85.124 9.09438C85.5918 9.95693 85.8315 10.9453 85.8315 12.072H86.3315H86.8315C86.8315 10.7987 86.5592 9.64307 86.0031 8.61762L85.5635 8.856ZM86.3315 12.072H85.8315C85.8315 13.1815 85.5924 14.1621 85.124 15.0256L85.5635 15.264L86.0031 15.5024C86.5587 14.4779 86.8315 13.3305 86.8315 12.072H86.3315ZM85.5635 15.264L85.124 15.0256C84.6519 15.896 84.0156 16.5743 83.2126 17.0707L83.4755 17.496L83.7384 17.9213C84.6955 17.3297 85.4511 16.52 86.0031 15.5024L85.5635 15.264ZM83.4755 17.496L83.2148 17.0694C82.4375 17.5444 81.5376 17.788 80.4995 17.788V18.288V18.788C81.7015 18.788 82.7856 18.5036 83.7363 17.9226L83.4755 17.496ZM80.4995 18.288V17.788C79.6801 17.788 78.9899 17.6392 78.4147 17.3586L78.1955 17.808L77.9763 18.2574C78.7132 18.6168 79.559 18.788 80.4995 18.788V18.288ZM78.1955 17.808L78.4235 17.363C77.8351 17.0616 77.3609 16.6568 76.9929 16.1473L76.5875 16.44L76.1822 16.7327C76.6462 17.3752 77.244 17.8824 77.9676 18.253L78.1955 17.808ZM76.5875 16.44H76.0875V23.28H76.5875H77.0875V16.44H76.5875ZM76.5875 23.28V22.78H73.3475V23.28V23.78H76.5875V23.28ZM79.7795 15.456V15.956C80.4837 15.956 81.1317 15.7925 81.7106 15.4564L81.4595 15.024L81.2085 14.5916C80.7954 14.8315 80.3233 14.956 79.7795 14.956V15.456ZM81.4595 15.024L81.7106 15.4564C82.2882 15.121 82.7378 14.6521 83.0531 14.0586L82.6115 13.824L82.17 13.5894C81.9413 14.0199 81.6228 14.351 81.2085 14.5916L81.4595 15.024ZM82.6115 13.824L83.0473 14.0691C83.3822 13.4739 83.5435 12.8036 83.5435 12.072H83.0435H82.5435C82.5435 12.6524 82.4169 13.1501 82.1757 13.5789L82.6115 13.824ZM83.0435 12.072H83.5435C83.5435 11.3267 83.3832 10.6479 83.0473 10.0509L82.6115 10.296L82.1757 10.5411C82.4159 10.9681 82.5435 11.4733 82.5435 12.072H83.0435ZM82.6115 10.296L83.0531 10.0614C82.7378 9.46794 82.2882 8.99901 81.7106 8.66361L81.4595 9.096L81.2085 9.52839C81.6228 9.76899 81.9413 10.1001 82.17 10.5306L82.6115 10.296ZM81.4595 9.096L81.7208 8.6697C81.1405 8.31399 80.4888 8.14 79.7795 8.14V8.64V9.14C80.3183 9.14 80.7866 9.27001 81.1983 9.5223L81.4595 9.096ZM79.7795 8.64V8.14C79.0568 8.14 78.3966 8.31275 77.8143 8.6697L78.0755 9.096L78.3368 9.5223C78.7464 9.27124 79.2222 9.14 79.7795 9.14V8.64ZM78.0755 9.096L77.8245 8.6636C77.2493 8.99755 76.7944 9.46306 76.4637 10.0509L76.8995 10.296L77.3353 10.5411C77.5807 10.1049 77.9097 9.77045 78.3266 9.52839L78.0755 9.096ZM76.8995 10.296L76.458 10.0614C76.1428 10.6547 75.9915 11.3211 75.9915 12.048H76.4915H76.9915C76.9915 11.4629 77.1123 10.9613 77.3411 10.5306L76.8995 10.296ZM76.4915 12.048H75.9915C75.9915 12.7752 76.1429 13.447 76.455 14.053L76.8995 13.824L77.344 13.595C77.1122 13.145 76.9915 12.6328 76.9915 12.048H76.4915ZM76.8995 13.824L76.4637 14.0691C76.7944 14.6569 77.2493 15.1225 77.8245 15.4564L78.0755 15.024L78.3266 14.5916C77.9097 14.3495 77.5807 14.0151 77.3353 13.5789L76.8995 13.824ZM78.0755 15.024L77.8245 15.4564C78.4053 15.7936 79.0618 15.956 79.7795 15.956V15.456V14.956C79.2173 14.956 78.7378 14.8304 78.3266 14.5916L78.0755 15.024ZM96.7052 17.688L96.5043 18.1459L96.5043 18.1459L96.7052 17.688ZM94.5212 15.864L94.1052 16.1414L94.1052 16.1414L94.5212 15.864ZM93.6572 12.768V12.268H93.1442L93.1573 12.7808L93.6572 12.768ZM96.8492 12.768L97.3489 12.7529L97.3343 12.268H96.8492V12.768ZM97.2092 14.208L96.7652 14.4382L96.7689 14.445L97.2092 14.208ZM98.1692 15.216L97.9071 15.6418L97.9166 15.6477L97.9264 15.6531L98.1692 15.216ZM101.145 15.24L100.901 14.8037L100.893 14.8081L101.145 15.24ZM102.057 14.352L101.622 14.106L101.622 14.106L102.057 14.352ZM101.961 11.664L102.369 11.375L102.369 11.375L101.961 11.664ZM100.809 10.8L100.61 11.2588L100.619 11.2627L100.629 11.2663L100.809 10.8ZM97.8812 10.488H97.3812V10.988H97.8812V10.488ZM97.8812 7.824V7.324H97.3812V7.824H97.8812ZM101.097 7.296L101.375 7.71211L101.383 7.7062L101.097 7.296ZM101.289 4.2L100.943 4.56107L100.951 4.56796L101.289 4.2ZM97.9052 4.32L97.5452 3.97287L97.5388 3.97977L97.9052 4.32ZM97.2092 5.976V6.476H97.6739L97.7078 6.01249L97.2092 5.976ZM94.0652 5.976L93.5657 5.9533L93.5419 6.476H94.0652V5.976ZM94.8572 3.264L95.2787 3.53303L95.2812 3.529L94.8572 3.264ZM96.8252 1.512L96.6085 1.06137L96.6085 1.06137L96.8252 1.512ZM102.633 1.536L102.402 1.97966L102.41 1.98321L102.633 1.536ZM104.457 3.168L104.029 3.42672L104.032 3.43118L104.457 3.168ZM104.697 7.128L104.25 6.90437L104.247 6.91022L104.697 7.128ZM103.737 8.376L104.059 8.75885L104.059 8.75885L103.737 8.376ZM102.369 9.12L102.22 8.64276L102.283 9.61252L102.369 9.12ZM104.025 9.84L103.714 10.2318L103.721 10.2368L104.025 9.84ZM105.129 11.256L104.672 11.4591L104.676 11.4668L104.679 11.4745L105.129 11.256ZM104.865 15.744L105.297 15.9959L105.299 15.9921L104.865 15.744ZM102.897 17.592L102.661 17.1515L102.661 17.1515L102.897 17.592ZM99.7052 18.288V17.788C98.6799 17.788 97.749 17.5999 96.906 17.2301L96.7052 17.688L96.5043 18.1459C97.4853 18.5761 98.5545 18.788 99.7052 18.788V18.288ZM96.7052 17.688L96.906 17.2301C96.0801 16.8679 95.4273 16.3218 94.9372 15.5866L94.5212 15.864L94.1052 16.1414C94.703 17.0382 95.5063 17.7081 96.5043 18.1459L96.7052 17.688ZM94.5212 15.864L94.9372 15.5866C94.4581 14.868 94.1872 13.9344 94.157 12.7552L93.6572 12.768L93.1573 12.7808C93.1911 14.0976 93.4963 15.228 94.1052 16.1414L94.5212 15.864ZM93.6572 12.768V13.268H96.8492V12.768V12.268H93.6572V12.768ZM96.8492 12.768L96.3494 12.7831C96.3675 13.3796 96.5039 13.934 96.7653 14.4382L97.2092 14.208L97.6531 13.9778C97.4665 13.618 97.3629 13.2124 97.3489 12.7529L96.8492 12.768ZM97.2092 14.208L96.7689 14.445C97.0361 14.9413 97.4188 15.3413 97.9071 15.6418L98.1692 15.216L98.4312 14.7902C98.0876 14.5787 97.8302 14.3067 97.6494 13.9709L97.2092 14.208ZM98.1692 15.216L97.9264 15.6531C98.4479 15.9428 99.0556 16.076 99.7292 16.076V15.576V15.076C99.1868 15.076 98.7545 14.9692 98.412 14.7789L98.1692 15.216ZM99.7292 15.576V16.076C100.355 16.076 100.919 15.9507 101.397 15.6719L101.145 15.24L100.893 14.8081C100.603 14.9773 100.223 15.076 99.7292 15.076V15.576ZM101.145 15.24L101.389 15.6763C101.862 15.4114 102.236 15.0524 102.492 14.598L102.057 14.352L101.622 14.106C101.463 14.3876 101.228 14.6206 100.901 14.8037L101.145 15.24ZM102.057 14.352L102.492 14.598C102.748 14.1453 102.869 13.6343 102.869 13.08H102.369H101.869C101.869 13.4857 101.782 13.8227 101.622 14.106L102.057 14.352ZM102.369 13.08H102.869C102.869 12.4366 102.712 11.8586 102.369 11.375L101.961 11.664L101.553 11.953C101.755 12.2374 101.869 12.6034 101.869 13.08H102.369ZM101.961 11.664L102.369 11.375C102.033 10.9007 101.565 10.5564 100.99 10.3337L100.809 10.8L100.629 11.2663C101.045 11.4276 101.345 11.6593 101.553 11.953L101.961 11.664ZM100.809 10.8L101.008 10.3412C100.453 10.1007 99.8227 9.988 99.1292 9.988V10.488V10.988C99.7157 10.988 100.205 11.0833 100.61 11.2588L100.809 10.8ZM99.1292 10.488V9.988H97.8812V10.488V10.988H99.1292V10.488ZM97.8812 10.488H98.3812V7.824H97.8812H97.3812V10.488H97.8812ZM97.8812 7.824V8.324H99.1292V7.824V7.324H97.8812V7.824ZM99.1292 7.824V8.324C99.9885 8.324 100.747 8.13045 101.375 7.71202L101.097 7.296L100.82 6.87997C100.391 7.16555 99.8378 7.324 99.1292 7.324V7.824ZM101.097 7.296L101.383 7.7062C102.063 7.23248 102.389 6.52492 102.389 5.664H101.889H101.389C101.389 6.24308 101.188 6.62352 100.811 6.8858L101.097 7.296ZM101.889 5.664H102.389C102.389 4.93454 102.143 4.30648 101.628 3.83203L101.289 4.2L100.951 4.56796C101.235 4.82952 101.389 5.17746 101.389 5.664H101.889ZM101.289 4.2L101.635 3.839C101.135 3.35993 100.471 3.148 99.7052 3.148V3.648V4.148C100.284 4.148 100.675 4.30407 100.943 4.56099L101.289 4.2ZM99.7052 3.648V3.148C98.8353 3.148 98.0927 3.40523 97.5453 3.97293L97.9052 4.32L98.2651 4.66707C98.5817 4.33876 99.039 4.148 99.7052 4.148V3.648ZM97.9052 4.32L97.5388 3.97977C97.0394 4.51757 96.7661 5.17939 96.7105 5.93951L97.2092 5.976L97.7078 6.01249C97.7482 5.46061 97.939 5.01843 98.2716 4.66022L97.9052 4.32ZM97.2092 5.976V5.476H94.0652V5.976V6.476H97.2092V5.976ZM94.0652 5.976L94.5647 5.9987C94.6094 5.01397 94.8538 4.19856 95.2786 3.53302L94.8572 3.264L94.4357 2.99498C93.9005 3.83344 93.6169 4.82603 93.5657 5.9533L94.0652 5.976ZM94.8572 3.264L95.2812 3.529C95.71 2.84287 96.2934 2.32246 97.0418 1.96263L96.8252 1.512L96.6085 1.06137C95.693 1.50154 94.9644 2.14912 94.4332 2.999L94.8572 3.264ZM96.8252 1.512L97.0418 1.96263C97.7952 1.60043 98.6789 1.412 99.7052 1.412V0.912V0.412C98.5555 0.412 97.5192 0.623568 96.6085 1.06137L96.8252 1.512ZM99.7052 0.912V1.412C100.799 1.412 101.691 1.60951 102.403 1.97961L102.633 1.536L102.864 1.09239C101.976 0.630487 100.916 0.412 99.7052 0.412V0.912ZM102.633 1.536L102.41 1.98321C103.135 2.34585 103.668 2.82849 104.029 3.42671L104.457 3.168L104.885 2.90929C104.415 2.13151 103.732 1.52614 102.857 1.08879L102.633 1.536ZM104.457 3.168L104.032 3.43118C104.397 4.02146 104.581 4.67381 104.581 5.4H105.081H105.581C105.581 4.49419 105.349 3.65854 104.882 2.90482L104.457 3.168ZM105.081 5.4H104.581C104.581 5.97164 104.467 6.46966 104.25 6.90439L104.697 7.128L105.144 7.35161C105.439 6.76234 105.581 6.10836 105.581 5.4H105.081ZM104.697 7.128L104.247 6.91022C104.036 7.3463 103.759 7.70496 103.416 7.99315L103.737 8.376L104.059 8.75885C104.516 8.37503 104.878 7.9017 105.147 7.34578L104.697 7.128ZM103.737 8.376L103.416 7.99315C103.068 8.28543 102.671 8.50196 102.22 8.64276L102.369 9.12L102.518 9.59724C103.092 9.41804 103.607 9.13857 104.059 8.75885L103.737 8.376ZM102.369 9.12L102.283 9.61252C102.849 9.71158 103.322 9.92042 103.714 10.2317L104.025 9.84L104.336 9.44825C103.8 9.02358 103.169 8.75242 102.455 8.62748L102.369 9.12ZM104.025 9.84L103.721 10.2368C104.132 10.5518 104.449 10.956 104.672 11.4591L105.129 11.256L105.586 11.0529C105.298 10.404 104.879 9.86419 104.329 9.4432L104.025 9.84ZM105.129 11.256L104.679 11.4745C104.913 11.9551 105.037 12.526 105.037 13.2H105.537H106.037C106.037 12.402 105.889 11.6769 105.579 11.0375L105.129 11.256ZM105.537 13.2H105.037C105.037 14.0259 104.835 14.7883 104.431 15.4959L104.865 15.744L105.299 15.9921C105.791 15.1317 106.037 14.1981 106.037 13.2H105.537ZM104.865 15.744L104.433 15.4921C104.036 16.1723 103.452 16.7265 102.661 17.1515L102.897 17.592L103.134 18.0325C104.07 17.5295 104.798 16.8517 105.297 15.9959L104.865 15.744ZM102.897 17.592L102.661 17.1515C101.887 17.5668 100.91 17.788 99.7052 17.788V18.288V18.788C101.029 18.788 102.179 18.5452 103.134 18.0325L102.897 17.592Z" fill="black"/>
</svg>
